<svg width="44" height="44" fill="none" xmlns="http://www.w3.org/2000/svg"><g opacity=".8" fill-rule="evenodd" clip-rule="evenodd"><path d="M14.467 1.913h22.718C40.949 1.913 44 5.286 44 9.446v25.108c0 4.16-3.051 7.533-6.815 7.533H14.467c-3.764 0-6.815-3.373-6.815-7.533V9.446c0-4.16 3.051-7.533 6.815-7.533Z" fill="#0D6EFD" fill-opacity=".2"/><path d="M8.13 1.913h23.913c3.962 0 7.174 3.373 7.174 7.533v25.108c0 4.16-3.212 7.533-7.173 7.533H8.13c-3.962 0-7.173-3.373-7.173-7.533V9.446c0-4.16 3.211-7.533 7.173-7.533Z" fill="#0D6EFD"/><g opacity=".7" fill="#fff"><path opacity=".3" d="M15.29 18.356h-.98c-.05 0-.126.07-.129.117l-.722 11.675 13.496-.003-.73-11.672c-.003-.045-.08-.117-.128-.117h-.98v1.965a.983.983 0 1 1-1.966 0v-1.965h-5.896v1.965a.983.983 0 1 1-1.965 0v-1.965Z"/><path d="M20.203 11.478a4.915 4.915 0 0 1 4.913 4.911l.98.002c1.087 0 2.023.88 2.09 1.96l.738 11.803a1.819 1.819 0 0 1-1.837 1.96H13.32a1.82 1.82 0 0 1-1.838-1.96l.738-11.803c.067-1.082 1.001-1.96 2.09-1.96h.98a4.915 4.915 0 0 1 4.913-4.913Zm2.948 4.914a2.95 2.95 0 0 0-2.948-2.948 2.95 2.95 0 0 0-2.948 2.945l5.896.003Zm-7.86 1.965h-.981c-.05 0-.126.07-.129.116l-.722 11.675 13.496-.003-.73-11.672c-.003-.044-.08-.116-.128-.116h-.98v1.965a.983.983 0 1 1-1.966 0v-1.965h-5.896v1.965a.983.983 0 1 1-1.965 0v-1.965Z"/></g></g></svg>